<?xml version="1.0" encoding="UTF-8"?>
<svg id="_Слой_1" xmlns="http://www.w3.org/2000/svg" version="1.1" viewBox="0 0 158.3 106.7">
  <!-- Generator: Adobe Illustrator 29.8.3, SVG Export Plug-In . SVG Version: 2.1.1 Build 3)  -->
  <defs>
    <style>
      .st0 {
        fill: none;
        stroke: #000;
        stroke-linejoin: round;
        stroke-width: 13px;
      }
    </style>
  </defs>
  <path class="st0" d="M125.98,52.18c-10.94,6.46-24.71,13.07-40.05,18.92-15.33,5.86-30,10.12-42.47,12.6-6.72-7.9-10.87-18.06-11.14-29.18-.02-.39-.02-.78-.02-1.17,0-25.87,20.98-46.85,46.85-46.85,14.29,0,27.09,6.4,35.69,16.5,6.72,7.9,10.87,18.06,11.14,29.18Z"/>
  <path class="st0" d="M126,53.35c0,25.87-20.98,46.85-46.85,46.85-14.29,0-27.09-6.4-35.69-16.5,12.47-2.48,27.14-6.74,42.47-12.6,15.34-5.85,29.11-12.46,40.05-18.92.02.39.02.78.02,1.17Z"/>
  <path class="st0" d="M32.32,54.52c.27,11.12,4.42,21.28,11.14,29.18-20,3.96-34.33,3.32-36.64-2.72-2.3-6.04,7.95-16.08,25.5-26.46Z"/>
  <path class="st0" d="M125.98,52.18c-.27-11.12-4.42-21.28-11.14-29.18,20-3.96,34.33-3.32,36.64,2.72,2.3,6.04-7.95,16.08-25.5,26.46Z"/>
</svg>